<svg version="1.2" xmlns="http://www.w3.org/2000/svg" viewBox="0 0 177 276" width="177" height="276">
	<title>habitro-green-svg</title>
	<style>
		.s0 { fill: #7851a9 } 
		.s1 { fill: #82a951 } 
	</style>
	<g id="Layer">
		<path id="Layer" class="s0" d="m214.7 84.9h29.7v49.4h44.7v-49.4h29.5v121.9h-29.5v-48.4h-44.7v48.4h-29.7z"/>
		<path id="Layer" fill-rule="evenodd" class="s0" d="m378.5 111.6q15.1 0 27.6 7.1 12.4 7 12.4 25.2l-0.2 43.7q-0.1 11.5-11.5 16.7-11.3 5.3-33 5.3-40.6 0-40.6-31.7 0-13.3 8.3-20.8 8.3-7.5 24.7-7.5 6.8 0 13.5 1.7 6.8 1.8 11.8 4.5v-5.8q0-15.9-20.5-15.9-7.9 0-16.2 2.8-8.3 2.8-13.2 6.9v-24.2q4.9-3.3 15-5.6 10.2-2.4 21.9-2.4zm-3.8 78.8q9.5 0 13.1-1.3 3.7-1.3 3.7-5.1v-14.3q-6.4-2.2-14.1-2.2-9 0-13.1 2.7-4.1 2.6-4.1 8.3 0 5.3 4.3 8.6 4.3 3.3 10.2 3.3z"/>
		<path id="Layer" fill-rule="evenodd" class="s0" d="m486.3 111.8q20.3 0 31.1 12.5 10.8 12.3 10.8 35.9-0.2 49.4-48.7 49.4-42.4 0-42.4-24.2v-105.2h26.7v37.4q4.9-2.9 11.3-4.3 6.3-1.5 11.2-1.5zm-7.1 75.1q21.7 0 21.7-25 0-28.4-21.2-28.4-3.8 0-8.2 1.1-4.4 1-7.7 2.8v40.9q0 8.6 15.4 8.6z"/>
		<path id="Layer" class="s0" d="m541.5 80.7h28.1v21h-28.1zm0.5 34.9h27.3l0.2 91.3h-27.5z"/>
		<path id="Layer" class="s0" d="m626.1 210.5q-15.9 0-23.9-7.5-7.9-7.5-7.9-21.6v-46.2h-13.5v-20.9h13.5v-25.3h28.5v25.3h20.3v20.9h-20.3v42.7q0 4.8 2 7.1 2 2.3 6.8 2.3 2.9 0 6-1 3.1-1 5.5-2.9v23.3q-6.9 3.8-17 3.8z"/>
		<path id="Layer" class="s0" d="m658.3 124q2.7-2.4 9.6-5.3 6.8-2.9 15.3-5 8.5-2.1 16.4-2.1 15.1 0 21 4.6v19.9q-7.3-1.6-21-1.6-8.6 0-14.1 0.9v71.4h-27.2z"/>
		<path id="Layer" fill-rule="evenodd" class="s0" d="m772.7 209.6q-23.4 0-35.1-12.4-11.7-12.5-11.7-37c0-16.3 3.8-29.4 11.6-37.2q11.6-11.8 35.2-11.8 23.6 0 35.4 12 11.9 12 11.9 37c0 16.7-4.1 28.4-12.2 36.8q-12.3 12.6-35.1 12.6zm0-21.8q10 0 15.2-7 5.1-7 5.1-20.5 0-14.8-5.1-21.2-5-6.3-15.2-6.3c-6.8 0-12.2 2.1-15.3 6.3q-4.7 6.4-4.7 21.2c0 9.8 1.6 16.3 4.9 20.8q4.8 6.7 15.1 6.7z"/>
	</g>
	<path id="Layer" class="s1" d="m99.1 148.1v105.5c0 5.5-6 9-10.8 6.3l-64.6-36.5c-2.3-1.3-3.7-3.7-3.7-6.3v-148.8c0-5.5 5.9-9 10.7-6.3l27 15c2.3 1.3 3.7 3.7 3.7 6.3v18l-19.9-11.3v119l36.2 20.4v-81.2h21.4z"/>
	<path id="Layer" class="s1" d="m156.7 58.9v148.8c0 5.5-5.9 9-10.7 6.3l-27-15c-2.3-1.3-3.7-3.7-3.7-6.3v-18l20 11.3v-119l-36.2-20.4v81.2h-21.4v-105.4c0-5.5 5.9-9 10.7-6.3l64.6 36.5c2.3 1.3 3.7 3.7 3.7 6.3z"/>
</svg>