<svg clip-rule="evenodd" fill-rule="evenodd" height="512" image-rendering="optimizeQuality" shape-rendering="geometricPrecision" text-rendering="geometricPrecision" viewBox="0 0 512 512" width="512" xmlns="http://www.w3.org/2000/svg" xmlns:xlink="http://www.w3.org/1999/xlink"><linearGradient id="id0" gradientUnits="userSpaceOnUse" x1="256.001" x2="256.001" y1="50.119" y2="461.881"><stop offset="0" stop-color="#5cc6d0"/><stop offset=".490196" stop-color="#a53692"/><stop offset="1" stop-color="#f06277"/></linearGradient><g id="Layer_x0020_1"><path d="m505 462h-64-111-85-32-40-32-91c-26 0-48-21-50-48 0-1 0-2 0-2v-294c0-37 30-68 68-68h9c5 0 8 3 8 8v47h420c4 0 7 3 7 7v342c0 5-3 8-7 8zm-182-15v-14-25-25-25-25-25-25-25-24-14c0-14 12-26 26-26h73c14 0 26 12 26 26v227h49v-327h-412v249 1c0 4-3 7-8 7h-27c-19 0-35 16-35 35s14 34 32 36c1-1 2-1 3-1h84v-122-22c0-2 0-2 0-3l52-109c1-2 3-4 6-4s6 2 7 4l23 47c0 1 1 2 1 3 1 1 1 1 1 2l27 57c1 1 1 2 1 3v22 1 121zm110 0v-227c0-6-5-12-12-12h-72c-6 0-12 6-12 12v6h40c4 0 8 3 8 8 0 4-4 7-8 7h-40v10h17c4 0 7 3 7 7 0 5-4 8-7 8h-17v10h40c4 0 8 3 8 7 0 5-4 8-8 8h-40v10h17c4 0 7 3 7 7 0 5-4 8-7 8h-17v10h40c4 0 8 3 8 7 0 5-4 8-8 8h-40v10h17c4 0 7 3 7 7s-4 8-7 8h-17v9h40c4 0 8 4 8 8s-4 7-8 7h-40v10h17c4 0 7 4 7 8s-4 7-7 7h-17v11h40c4 0 8 3 8 7s-4 8-8 8h-40v6zm-285-129h89v-13l-25-53c-7 2-13 3-19 3-7 0-13-1-20-3l-25 52zm89 129v-114h-89v114h18v-89c0-4 3-7 7-7s8 3 8 7v89h24v-89c0-4 3-7 8-7 4 0 7 3 7 7v89zm-31-208-13-28-14 28c5 1 10 1 14 1s8 0 13-1zm-191 139c9-10 21-16 35-16h20v-250-47h-2c-29 0-53 24-53 53z" fill="url(#id0)"/></g></svg>