<svg clip-rule="evenodd" fill-rule="evenodd" height="512" image-rendering="optimizeQuality" shape-rendering="geometricPrecision" text-rendering="geometricPrecision" viewBox="0 0 512 512" width="512" xmlns="http://www.w3.org/2000/svg" xmlns:xlink="http://www.w3.org/1999/xlink"><linearGradient id="id0" gradientUnits="userSpaceOnUse" x1="256.001" x2="256.001" y1="5.992" y2="506.174"><stop offset="0" stop-color="#5cc6d0"/><stop offset=".490196" stop-color="#a53692"/><stop offset="1" stop-color="#f06277"/></linearGradient><g id="Layer_x0020_1"><path d="m479 215c-15-22-71-22-86 0zm-278 123h-34c-10 0-10-15 0-15h34c10 0 10 15 0 15zm143 0h-33c-10 0-10-15 0-15h33c10 0 10 15 0 15zm-96 48v-112h-129v112zm247-126c1 0 3-1 3-2v-26c0-1-1-3-3-3h-478c-1 0-3 2-3 3v26c0 1 2 2 3 2zm-232 14v112h129v-112zm-63-157h-74c-10 0-10-15 0-15h74c10 0 10 15 0 15zm43 37h-28v61h162c5-17 25-29 51-31v-98l-62-40-8 5 19 30c4 7-3 11-6 12-24 15-55 9-69-15-15-23-8-54 16-69 7-4 5-3 9-3 2 0 4 1 5 3l19 30c8-6 14-11 20-8l70 46c2 2 3 5 2 8v99c26 2 47 14 51 31 10 0 18 7 18 17v25c0 10-8 17-17 17h-43v225c-1 4-4 7-8 7h-44c-4 0-8-3-8-7v-98h-273v98c0 4-3 7-7 7h-44c-4 0-8-3-8-7v-225h-43c-9 0-17-7-17-17v-25c0-10 8-17 17-17h35c-24-27-9-75 36-75-27-29-6-75 33-75h122c4 0 7 3 7 7v75c0 4-3 7-7 7zm-122-75c-17 0-31 14-31 30 0 17 14 31 31 31h115v-61zm44 113h-74c-10 0-10-15 0-15h74c10 0 10 15 0 15zm-80-38c-16 0-30 14-30 31 0 16 14 30 30 30h115v-61zm322 120v218h30v-218zm-332 0v218h29v-218zm248-251c-24 17-16 56 12 63 9 2 18 1 25-3z" fill="url(#id0)"/></g></svg>