<svg clip-rule="evenodd" fill-rule="evenodd" height="512" image-rendering="optimizeQuality" shape-rendering="geometricPrecision" text-rendering="geometricPrecision" viewBox="0 0 1707 1707" width="512" xmlns="http://www.w3.org/2000/svg" xmlns:xlink="http://www.w3.org/1999/xlink"><linearGradient id="id0" gradientUnits="userSpaceOnUse" x1="853.335" x2="853.335" y1="166.669" y2="1539.99"><stop offset="0" stop-color="#5cc6d0"/><stop offset=".490196" stop-color="#a53692"/><stop offset="1" stop-color="#f06277"/></linearGradient><g id="Layer_x0020_1"><path d="m1063 1160h-440c-13 0-23-10-23-23s10-24 23-24h440c13 0 24 11 24 24s-11 23-24 23zm537-423h-3v780c0 13-11 23-24 23h-133c-13 0-23-10-23-23v-110h-244c-9 21-32 36-56 36h-42c3 9 5 18 5 27 0 39-31 70-70 70s-70-31-70-70c0-9 2-18 5-27h-36c3 9 4 18 4 27 0 39-30 70-70 70s-73-31-73-70c0-9 2-18 5-27h-34c4 9 6 18 6 27 0 39-33 70-74 70-39 0-70-31-70-70 0-9 2-18 5-27h-41c-25 0-47-15-56-36h-221v110c0 13-10 23-23 23h-134c-13 0-23-10-23-23v-780h-3c-60 0-107-47-107-107 0-57 44-103 100-106v-334c0-13 10-23 23-23h234c13 0 23 10 23 23v333h223 1c42-38 61-81 79-123 27-62 55-127 160-127s133 65 160 128c17 41 35 84 76 122h248v-333c0-13 10-23 23-23h233c13 0 24 10 24 23v334c56 3 100 49 100 106 0 60-47 107-107 107zm-50 0h-87v646 110h87zm-133 0h-217c-5 24-15 50-30 78-28 54-44 138-54 205 54 1 101 39 114 89 26-15 43-48 43-86v-93h-26c-13 0-24-10-24-23v-50c0-40 34-74 74-74 41 0 73 33 73 74v50c0 13-10 23-23 23h-27v93c0 64-37 119-89 136-10 55-59 98-118 98h-202v70h206c23 0 44 13 53 33h247zm-260-22s0-1 0-2c0-2 0-4 0-6 3-57-36-89-80-125-6-5-12-10-17-14-4-2-7-5-9-8l-3-3h-1c-47-45-68-94-87-138-26-62-42-99-117-99-74 0-90 37-117 98-19 44-41 94-90 139l-4 4c-2 2-4 4-7 6-6 6-13 11-20 17-59 51-111 94-51 209 34 66 53 164 62 227h118c-2-50-9-101-19-132 0-1 0-1 0-2-26-101 0-145 22-183 4-6 7-11 10-17 12-24 19-53 24-79 10-45 21-96 73-96 49 0 60 50 69 94 6 27 12 57 25 82 3 5 6 10 9 16 23 38 48 82 23 183-7 31-13 80-18 134h118c10-72 27-165 59-228 17-30 25-55 28-77zm46-25h237 133 27c34 0 60-26 60-60s-26-60-60-60h-16-1-449c23 21 45 44 58 74 7 15 10 30 11 46zm170-167h187v-310h-187zm-889 214h-194v623h223c10-20 30-33 54-33h203v-70h-200c-60 0-109-45-116-105-41-24-67-73-67-129v-93h-27c-13 0-23-10-23-23v-50c0-41 32-74 73-74 40 0 73 34 73 74v50c0 13-10 23-23 23h-27v93c0 30 10 57 27 74 16-45 59-77 110-77-14-87-34-161-58-205-15-29-24-55-28-78zm-241 0h-86v756h86v-110zm-96-214h186v-310h-186zm403 47h-193-250c-34 0-60 26-60 60s26 60 60 60h26 1 132 1 214c5-53 37-90 69-120zm-310-207c-39 0-70-33-70-73 0-38 32-70 70-70s70 32 70 70c0 40-31 73-70 73zm0-96c-13 0-23 12-23 23 0 13 9 27 23 27s23-14 23-27c0-11-10-23-23-23zm0 246c-39 0-70-30-70-70 0-39 31-70 70-70s70 31 70 70c0 40-31 70-70 70zm0-93c-14 0-23 10-23 23 0 14 9 24 23 24s23-10 23-24c0-13-9-23-23-23zm1227-57c-39 0-70-33-70-73 0-38 32-70 70-70s70 32 70 70c0 40-32 73-70 73zm0-96c-14 0-24 12-24 23 0 13 9 27 24 27 14 0 23-14 23-27 0-11-10-23-23-23zm0 246c-40 0-70-30-70-70 0-39 30-70 70-70 39 0 70 31 70 70 0 40-31 70-70 70zm0-93c-14 0-24 10-24 23 0 14 10 24 24 24 13 0 23-10 23-24 0-13-10-23-23-23zm-174 463h4 4 22v-26c0-14-9-27-26-27-14 0-27 13-27 27v26zm-793 251v5c1 40 31 71 70 71h223 95 225c41 0 74-33 74-73 0-38-34-70-74-70h-23-1-162c-1 0-1 0-2 0h-162c-2 0-4 0-6 0s-3 0-5 0h-153c-2 0-4 0-6 0h-23c-38 0-69 30-70 67zm280-114h125c3-39 9-101 19-145 21-84 3-114-17-149-4-6-7-12-10-18-17-31-24-64-30-94-4-19-8-37-13-48-4-9-7-9-10-9-12 0-17 16-27 60-6 29-13 61-29 91-3 6-7 12-10 18-21 35-39 66-18 148 13 43 19 101 20 146zm108 354h-95c-1 0-2 0-4-1h-222c-7 0-14 7-14 14 0 3 6 10 14 10h106 1 169 167 107c7 0 13-7 13-10 0-7-6-14-13-14h-225c-1 1-3 1-4 1zm-23-47v-70h-48v70zm-482-444h27 27v-26c0-14-13-27-27-27-18 0-27 13-27 27zm290 560c-14 0-23 14-23 27 0 14 10 23 23 23s27-9 27-23-13-27-27-27zm170 0c-13 0-26 13-26 27s14 23 26 23c14 0 24-9 24-23 0-13-9-27-24-27zm167 0c-14 0-23 14-23 27 0 14 9 23 23 23s23-9 23-23c0-13-9-27-23-27z" fill="url(#id0)"/></g></svg>