<svg clip-rule="evenodd" fill-rule="evenodd" height="512" image-rendering="optimizeQuality" shape-rendering="geometricPrecision" text-rendering="geometricPrecision" viewBox="0 0 512 512" width="512" xmlns="http://www.w3.org/2000/svg" xmlns:xlink="http://www.w3.org/1999/xlink"><linearGradient id="id0" gradientUnits="userSpaceOnUse" x1="255.997" x2="255.997" y1="30.863" y2="481.136"><stop offset="0" stop-color="#5cc6d0"/><stop offset=".490196" stop-color="#a53692"/><stop offset="1" stop-color="#f06277"/></linearGradient><g id="Layer_x0020_1"><path d="m430 512h-358c-4 0-7-3-7-7v-260h-53c-6 0-9-7-5-12l215-214c16-16 42-16 58 0l86 85 119-102c3-3 7-2 9 0l11 11c2 2 2 6 0 9l-102 119 92 92c4 5 1 12-5 12h-53v260c0 4-3 7-7 7zm-266-106v-60h-41v60zm14-60v60h41v-60zm48 74h-110c-3 0-7-3-7-7v-74c0-4 4-7 7-7h110c3 0 7 3 7 7v74c0 4-4 7-7 7zm126 29c-4 0-7-3-7-7v-24c0-4 3-7 7-7 3 0 7 3 7 7v24c0 4-4 7-7 7zm-85 49v-109c0-31 25-57 56-57h13c31 0 56 26 56 57v109h31v-260c0-4 3-7 7-7h43l-79-79-40 46c-3 3-7 3-10 0l-35-35c-3-3-3-8 0-10l46-40-85-85c-11-10-28-10-38 0l-203 203h43c4 0 7 3 7 7v260zm112 0v-109c0-24-20-43-43-43h-13c-23 0-42 19-42 43v109zm-276-296c-6 0-9-8-5-12l128-129c3-2 8-2 10 0 3 3 3 7 0 10l-128 128c-1 2-3 3-5 3zm149 61c-6 0-9-7-5-12 42-49 23-67 43-81 4-2 9-6 13-1l34 33c4 4 0 9 0 10-6 14-26 37-84 51zm45-81c-3 3-4 6-5 14-3 10-6 26-21 47 33-10 47-25 53-34zm27-24 25 25 30-36-19-19zm47-40c-1 0-1 1-1 1l18 18 102-119-1-1z" fill="url(#id0)"/></g></svg>