<svg clip-rule="evenodd" fill-rule="evenodd" height="512" image-rendering="optimizeQuality" shape-rendering="geometricPrecision" text-rendering="geometricPrecision" viewBox="0 0 512 512" width="512" xmlns="http://www.w3.org/2000/svg" xmlns:xlink="http://www.w3.org/1999/xlink"><linearGradient id="id0" gradientUnits="userSpaceOnUse" x1="256" x2="256" y1="44.365" y2="467.635"><stop offset="0" stop-color="#5cc6d0"/><stop offset=".490196" stop-color="#a53692"/><stop offset="1" stop-color="#f06277"/></linearGradient><g id="Layer_x0020_1"><path d="m491 305c0-23-18-41-41-41s-41 18-41 41c0 4-4 7-8 7s-7-3-7-7v-194h-267v259h326c21 0 38-18 38-38zm-63 163h-5-1-338c-1 0-2-1-3-1 0 0-1 1-3 1h-71c-4 0-7-4-7-8v-53c0-4 3-7 7-7h71 3 3 344c3 0 5 1 7 4l72 22c3 0 5 3 5 6 0 4-2 6-5 7l-73 25c-1 2-3 4-6 4zm-351-15v-38h-62v38zm359-34v29l45-15zm-345 34h330v-38h-1-329zm-2-69h-75c-5 0-8-4-8-8v-23-23-22-23-23-22-22-23-23-22-23-23c0-4 3-7 8-7h75c4 0 7 3 7 7v272c0 4-3 8-7 8zm-68-15h61v-258h-61v9h23c5 0 8 3 8 7s-3 8-8 8h-23v7h13c4 0 7 3 7 8 0 4-3 7-7 7h-13v8h23c5 0 8 3 8 7s-3 8-8 8h-23v7h13c4 0 7 3 7 8 0 4-3 7-7 7h-13v8h23c5 0 8 3 8 8 0 4-3 7-8 7h-23v7h13c4 0 7 4 7 8s-3 7-7 7h-13v8h23c5 0 8 3 8 7 0 5-3 8-8 8h-23v8h13c4 0 7 3 7 7 0 5-3 8-7 8h-13v7h23c5 0 8 4 8 8s-3 7-8 7h-23v8h13c4 0 7 3 7 7s-3 8-7 8h-13v8h23c5 0 8 3 8 7s-3 8-8 8h-23zm373-273c2-29 26-52 56-52 31 0 56 25 56 56v202 3 27c0 28-24 52-53 52h-333c-4 0-8-3-8-8v-273c0-4 4-7 8-7zm15 5v2 3 162c10-11 25-18 41-18s31 7 41 18v-168c0-23-18-41-41-41s-41 18-41 41zm-80 133h-137v105h32v-53c0-4 3-7 8-7h58c4 0 7 3 7 7v53h32zm-152 0c-4-1-7-4-9-7-3-6-1-14 4-19l76-76c7-7 19-7 26 0l76 76c4 5 7 13 4 19-2 3-5 6-10 7v113c0 4-3 7-7 7h-47-58-48c-4 0-7-3-7-7zm11-14h145c2-1 3-1 4-1h3s-1-1-1-1l-2-2-74-74c-1-1-4-1-5 0l-76 76c-1 0-1 1-1 1h3c1 0 3 0 4 1zm51 119h43v-45h-43z" fill="url(#id0)"/></g></svg>