<svg clip-rule="evenodd" fill-rule="evenodd" height="512" image-rendering="optimizeQuality" shape-rendering="geometricPrecision" text-rendering="geometricPrecision" viewBox="0 0 512 512" width="512" xmlns="http://www.w3.org/2000/svg" xmlns:xlink="http://www.w3.org/1999/xlink"><linearGradient id="id0" gradientUnits="userSpaceOnUse" x1="256" x2="256" y1="49.703" y2="462.297"><stop offset="0" stop-color="#5cc6d0"/><stop offset=".490196" stop-color="#a53692"/><stop offset="1" stop-color="#f06277"/></linearGradient><g id="Layer_x0020_1"><path d="m348 85c-4 0-8-3-8-7v-13h-27v25c0 4-3 8-7 8s-8-4-8-8v-25h-27v13c-1 4-4 7-8 7s-7-3-7-7v-13h-28v25c0 4-3 8-7 8s-8-4-8-8v-25h-27v13c0 4-3 7-8 7-4 0-7-3-7-7v-13h-27v25c-1 4-4 8-8 8s-7-4-7-8v-25h-28v13c0 4-3 7-7 7-5 0-8-3-8-7v-13h-27v25c0 4-4 8-7 8-5 0-8-4-8-8v-25h-15v43h384v-43h-15v25c-1 4-4 8-8 8s-7-4-7-8v-25h-28v13c0 4-3 7-7 7zm-293 327h-34l18 29zm-54-6c-1 0-1-1-1-2v-205c0-1 0-2 0-2v-43c0-4 3-8 7-8h60c5 0 8 4 8 8v40 3 207c0 2 0 3-1 4v1l-28 50c-1 2-4 3-6 3-3 0-5-1-7-3l-31-50c-1-1-1-2-1-3zm14-217h45v-28h-45zm0 208h45v-193h-45zm193-43h-28v22h114v-78h-78v49c-1 4-3 7-8 7zm-43 0h-33c-4 0-7-3-7-7v-133c0-4 3-7 7-7h73c1-1 3-1 4-1h132c4 0 8 3 8 8v76c-1 5-4 8-8 8h-32v86c0 4-3 7-7 7h-130c-4 0-7-3-7-7zm51-133v62h118v-62zm-76 119h30c0-1 1-1 2-1s2 0 3 1h26v-49-70h-61zm318 101-361-2c-4 0-7-3-7-7v-257c0-4 3-7 7-7h307c4-26 27-46 54-46 30 0 54 24 54 54v211c0 29-24 54-54 54zm-39-269v3c0 2 0 3-1 4v208c0 21 18 39 40 39 22 0 39-18 39-39v-211c0-21-17-39-39-39-20 0-37 15-39 35zm-15 11h-300v241l317 2c-11-10-17-24-17-39zm-59-133h3 2 40 30c5 0 8 3 8 8v57c0 4-4 7-8 7h-399c-4 0-7-3-7-7v-57c0-5 3-8 7-8h31 39 3 2 40 40 2 3 40 40 2 3 40z" fill="url(#id0)"/></g></svg>