<svg clip-rule="evenodd" fill-rule="evenodd" height="512" image-rendering="optimizeQuality" shape-rendering="geometricPrecision" text-rendering="geometricPrecision" viewBox="0 0 512 512" width="512" xmlns="http://www.w3.org/2000/svg" xmlns:xlink="http://www.w3.org/1999/xlink"><linearGradient id="id0" gradientUnits="userSpaceOnUse" x1="255.979" x2="255.979" y1="-.085" y2="511.667"><stop offset="0" stop-color="#5cc6d0"/><stop offset=".490196" stop-color="#a53692"/><stop offset="1" stop-color="#f06277"/></linearGradient><g id="Layer_x0020_1"><path d="m430 512c-116 0-231 0-347 0-42 0-76-34-76-76v-178c-1-3-1-1 0-5v-177c0-42 34-76 76-76h347c42 0 75 34 75 76v360c0 42-34 76-75 76zm-144-94c-4 0-7-3-7-7v-36c0-10 15-10 15 0v36c0 4-4 7-8 7zm99 0c-4 0-8-3-8-7v-36c0-10 15-10 15 0v36c0 4-3 7-7 7zm29 0c-4 0-7-3-7-7v-36c0-10 15-10 15 0v36c0 4-4 7-8 7zm32 20h-10v59c31-4 55-30 55-61v-173h-469v173c0 34 27 61 61 61h18v-185c0-5 4-10 9-10h70c6 0 10 4 10 10v185h37v-64c0-11 12-10 18-10v-65c0-5 4-9 9-9h192c5 0 9 4 9 9v70c0 5-4 10-9 10zm-6-15v-59h-180v59zm-198 14v60h180v-60c-60 0-121 0-180 0zm25 56c-4 0-7-4-7-8v-35c0-10 15-10 15 0v35c0 4-3 8-8 8zm99 0c-4 0-7-4-7-8v-35c0-10 15-10 15 0v35c0 4-4 8-8 8zm30 0c-4 0-7-4-7-8v-35c0-10 14-10 14 0v35c0 4-3 8-7 8zm-232-15h-36c-10 0-10-15 0-15h36c10 0 9 15 0 15zm0-98h-36c-10 0-10-15 0-15h36c10 0 9 15 0 15zm0-30h-36c-10 0-10-15 0-15h36c10 0 9 15 0 15zm11 147v-180h-59v180zm225-285c-4 0-7-4-7-8v-93c0-10 15-10 15 0v93c0 4-4 8-8 8zm33 36v-149c0-18-15-33-33-33-19 0-33 15-33 33v149zm-81 0v-149c0-26 21-47 47-47 27 0 48 21 48 47v149h44v-172c0-34-28-62-61-62h-347c-34 0-61 28-61 62v172h33v-73c0-8 8-7 13-7-28-31-6-80 35-80h156c4 0 8 3 8 7v80c0 8-9 8-13 8 17 18 17 47-1 65zm-144-106h-94c-10 0-10-15 0-15h94c9 0 9 15 0 15zm16 41c-9-1-114-1-118-1-7 2-5 1-12 0h-24v66h149c18 0 33-14 33-33 0-16-12-30-28-32zm28-15v-66h-149c-19 0-33 15-33 33 0 17 12 30 27 33zm-44 55h-94c-10 0-10-15 0-15h94c9 0 9 15 0 15z" fill="url(#id0)"/></g></svg>