<svg clip-rule="evenodd" fill-rule="evenodd" height="512" image-rendering="optimizeQuality" shape-rendering="geometricPrecision" text-rendering="geometricPrecision" viewBox="0 0 512 512" width="512" xmlns="http://www.w3.org/2000/svg" xmlns:xlink="http://www.w3.org/1999/xlink"><linearGradient id="id0" gradientUnits="userSpaceOnUse" x1="256" x2="256" y1="35.223" y2="476.777"><stop offset="0" stop-color="#5cc6d0"/><stop offset=".490196" stop-color="#a53692"/><stop offset="1" stop-color="#f06277"/></linearGradient><g id="Layer_x0020_1"><path d="m362 238c-18 0-32-17-32-36l-1-24h-240c-4 0-7-3-7-7v-29h-39c-8 0-14-5-14-13v-16h-12-1v2c-3 21-7 72 33 92 20 10 43 14 63 19 28 6 53 11 65 29 9 12 16 34 15 52h12c4 0 8 3 8 8v28h3c4 0 8 3 8 7v119c0 4-4 8-8 8h-65c-4 0-7-4-7-8v-119c0-4 3-7 7-7h3v-28c0-5 3-8 7-8h17c2-14-4-34-12-45-8-13-31-17-56-23-21-4-44-9-66-20-50-24-44-88-41-106v-3c1-5 2-12 12-12h3 12v-14c0-7 6-13 14-13h39v-28c0-4 3-7 7-7h322c0-1 1-1 2-1s2 0 3 1h36c4 0 7 3 7 7v28h39c8 0 14 5 14 13v46c0 7-6 12-14 12h-39v28c0 5-3 8-7 8h-57v23c-1 20-16 37-33 37zm-33-75v-21c-29-2-58-6-58-49v-42h-174v27 58 27zm-43-112v42c0 31 17 33 51 34 3 0 7 3 7 7v35 2 1l1 30c0 11 8 21 17 21 10 0 18-10 18-21v-28c-1-1-1-2-1-4 0-1 0-2 1-3l-1-32c0-2 2-5 4-6 16-9 22-22 23-47v-31zm135 0v31c-1 21-5 42-27 57v24h50v-28-57-27zm-339 77v-42h-38v42zm377-42v42h38v-42zm-276 236c-1 0-2 0-2 0h-13v21h29v-21h-12s-1 0-2 0zm-25 140h50v-104h-3-45-2z" fill="url(#id0)"/></g></svg>