<svg clip-rule="evenodd" fill-rule="evenodd" height="512" image-rendering="optimizeQuality" shape-rendering="geometricPrecision" text-rendering="geometricPrecision" viewBox="0 0 512 512" width="512" xmlns="http://www.w3.org/2000/svg" xmlns:xlink="http://www.w3.org/1999/xlink"><linearGradient id="id0" gradientUnits="userSpaceOnUse" x1="256.001" x2="256.001" y1="28.549" y2="483.449"><stop offset="0" stop-color="#5cc6d0"/><stop offset=".490196" stop-color="#a53692"/><stop offset="1" stop-color="#f06277"/></linearGradient><g id="Layer_x0020_1"><path d="m394 238h-116c-4 0-8-3-8-8 0-4 4-7 8-7h116v-72h-164v99c0 4-4 7-8 7h-16v30h113v-8c0-4 4-7 8-7s7 3 7 7v13c1 0 1 1 1 2s0 2-1 2v65h60zm80 245c-4 0-7-3-7-7l-1-22h-422v22c0 5-4 7-8 7-4 0-7-3-7-7l1-22h-21c-5 0-8-3-8-7s3-8 8-8h21l9-336 1-20h-33c-4 0-7-3-7-7s3-7 7-7h33l1-33c0-5 3-7 8-7 4 0 7 3 7 7l-1 33h401v-33c0-4 2-7 7-7 4 0 7 2 7 7l1 33h32c5 0 8 3 8 7s-4 7-8 7h-32l9 356h25c4 0 7 4 7 8s-4 7-7 7h-24v22c0 4-3 7-7 7zm-8-44-9-356h-403v20l-9 336zm-65-63h-74-216c-4 0-8-4-8-8v-52-66-107c0-4 4-7 8-7h290c4 0 8 3 8 7v225c-1 4-4 8-8 8zm-283-15h201v-59h-113v14c0 4-3 7-7 7h-81zm97-210h-97v91h81 16zm-97 106v51h73v-14-37z" fill="url(#id0)"/></g></svg>