<svg clip-rule="evenodd" fill-rule="evenodd" height="512" image-rendering="optimizeQuality" shape-rendering="geometricPrecision" text-rendering="geometricPrecision" viewBox="0 0 1707 1707" width="512" xmlns="http://www.w3.org/2000/svg" xmlns:xlink="http://www.w3.org/1999/xlink"><linearGradient id="id0" gradientUnits="userSpaceOnUse" x1="852.98" x2="852.98" y1=".134" y2="1706.53"><stop offset="0" stop-color="#5cc6d0"/><stop offset=".490196" stop-color="#a53692"/><stop offset="1" stop-color="#f06277"/></linearGradient><g id="Layer_x0020_1"><path d="m225 1385h-151v112h346v-112h-152c-8 0-15-2-22-6-6 4-13 6-21 6zm-176 322c-32 0-24-34-24-34-4-37-1-91-1-130 0-8 2-16 6-23-3-6-5-13-5-20v-118c0-7 2-14 5-20-4-7-6-15-6-23v-118c0-8 2-16 6-23-3-6-5-13-5-20v-118c0-25 21-46 46-46h352c8 0 15 2 22 6 6-4 14-6 21-6h353c25 0 45 21 45 46v115h152c25 0 45 21 45 46s4 120-4 137c5 7 7 15 7 24v118c-1 7-3 15-7 21 4 6 6 14 6 22v114h123v-192c0-29 33-25 53-25 0-110-12-108 59-108l29-718c-30-26-51-63-54-105l-324-255-37 4-306 221c-10 36-38 64-75 73v88h216c16 0 27 17 22 32l-64 174c-8 29-55 14-43-16l51-142h-415l52 143c10 29-36 46-46 15l-62-174c-6-16 6-32 22-32h218v-88c-45-11-78-51-78-100 0-54 41-98 95-102l293-250c13-57 63-100 124-100 67 0 123 52 128 118l342 225c99-28 201 49 201 152 0 48-21 90-55 119l29 718c81 0 68-5 68 108 20 0 54-4 54 25v217c0 13-12 24-25 25zm23-50h150v-111h-150zm200 0h345v-111h-151c-7 0-15-2-21-6-7 4-14 6-22 6h-151zm395 0h346v-111h-151c-8 0-15-2-22-6-6 4-14 6-21 6h-152zm568 0h398v-167h-398zm-727-1152c28-1 53-26 53-54 0-70-109-72-109 0 0 31 25 55 56 54zm49-141c22 12 39 33 47 57l250-180c-30-16-52-44-61-78zm350-155c20 0 23-1 42-6 29-13 48-41 49-72 1-45-36-82-81-82-99 0-106 147-10 160zm131-37c-8 23-22 43-41 58l281 222c10-34 31-63 58-84zm283 322c0 60 48 108 108 108 61 0 110-48 110-108 0-73-80-131-148-102-43 17-70 56-70 102zm108 158c-19 0-37-3-54-10l-28 690h166l-28-690c-18 7-36 10-56 10zm151 788v-58h-291v58zm-1160-265v-112h-346v112zm396 0v-112h-347v112zm-346 210v112h346v-112h-153c-7 0-15-2-21-6-7 4-14 6-22 6zm147-49v-112h-346v112zm249 49v112h148v-112zm147-49v-112h-347v112zm-791 0v-112h-148v112z" fill="url(#id0)"/></g></svg>