<svg clip-rule="evenodd" fill-rule="evenodd" height="512" image-rendering="optimizeQuality" shape-rendering="geometricPrecision" text-rendering="geometricPrecision" viewBox="0 0 4335 4335" width="512" xmlns="http://www.w3.org/2000/svg" xmlns:xlink="http://www.w3.org/1999/xlink"><linearGradient id="id0" gradientUnits="userSpaceOnUse" x1="2167.46" x2="2167.46" y1="417.58" y2="3917.36"><stop offset="0" stop-color="#5cc6d0"/><stop offset=".490196" stop-color="#a53692"/><stop offset="1" stop-color="#f06277"/></linearGradient><g id="Layer_x0020_1"><path d="m4210 3400h-391v391h391zm-3775-1275c-130 0-236-105-236-236 0-130 106-232 236-232s233 102 233 232c3 127-103 236-233 236zm0-348c-150 0-147 221 0 221 142 0 149-221 0-221zm3465 348c-131 0-236-105-236-236 0-130 105-232 236-232 130 0 236 106 236 232 3 127-106 236-236 236zm0-348c-150 0-148 221 0 221 145 0 153-221 0-221zm-521-683c-131 0-233-106-233-236 0-131 106-236 233-236 130 0 236 105 236 236 0 130-106 236-236 236zm0-349c-147 0-143 225 0 225 149 0 149-225 0-225zm-771 1021c-131 0-236-106-236-236s105-236 236-236c130 0 235 106 235 236 4 130-105 236-235 236zm0-348c-149 0-149 225 0 225 148 0 148-225 0-225zm-687-303c-130 0-236-106-236-236s106-233 236-233 232 103 232 233-105 236-232 236zm0-349c-150 0-147 222 0 222 145 0 143-222 0-222zm-581 1000c-130 0-236-106-236-236s106-236 236-236 236 106 236 236c3 130-106 236-236 236zm0-348c-149 0-149 225 0 225s149-225 0-225zm2123 661h-2598v405h2598zm-2598-126h2598v-352c0-215 155-392 359-427v-418c0-120-95-215-211-215h-2887c-120 0-215 95-215 215v418c202 37 356 214 356 427zm2725 531h620v-883c0-179-147-322-341-309-158 15-279 146-279 309zm-3127-1192c-20 5-26 1-37-1-168 5-301 140-301 310v883h620v-883c0-160-123-295-282-309zm-74-122v-414c0-187 152-338 338-338h2888c186 0 334 151 334 338v415c215 26 380 208 380 430 0 751 7 1501 7 2253-3 35-31 63-63 63h-518c-35 0-63-28-63-63v-454h-3046v454c-3 35-31 63-66 63h-518c-35 0-63-28-63-63 2-751 0-1502 0-2253 0-226 171-410 390-431zm-264 1438v669h4085v-669c-1362 0-2723 0-4085 0zm0 792v391h395v-391z" fill="url(#id0)"/></g></svg>