<svg clip-rule="evenodd" fill-rule="evenodd" height="512" image-rendering="optimizeQuality" shape-rendering="geometricPrecision" text-rendering="geometricPrecision" viewBox="0 0 4335 4335" width="512" xmlns="http://www.w3.org/2000/svg" xmlns:xlink="http://www.w3.org/1999/xlink"><linearGradient id="id0" gradientUnits="userSpaceOnUse" x1="2167.52" x2="2167.52" y1=".33" y2="4334.59"><stop offset="0" stop-color="#5cc6d0"/><stop offset=".490196" stop-color="#a53692"/><stop offset="1" stop-color="#f06277"/></linearGradient><g id="Layer_x0020_1"><path d="m3595 3366h-1069c-32 169-180 300-360 300-177 0-326-131-354-300h-1072c-47 0-76-47-57-88l476-1000c10-21 31-35 56-35h585v-60c0-139 77-261 190-324v-1195c-155-28-275-163-275-329v-271c0-35 28-64 63-64h757c36 0 64 29 64 64v271c-3 155-111 288-257 324v1200c113 63 190 185 190 324v60h588c25 0 46 14 56 35l476 1000c19 36-7 88-57 88zm-1887 778c-51 0-83-64-42-105l239-240c58-58 146 30 88 88l-239 240c-14 10-32 17-46 17zm915 0c-14 0-31-7-42-17l-239-240c-58-58 30-146 88-88l239 240c41 40 11 105-46 105zm-457 191c-36 0-64-29-64-64v-338c0-83 127-83 127 0v338c0 35-28 64-63 64zm-1106-1215c-40 0-78-43-56-88l267-560c34-72 145-19 110 53l-268 560c-7 21-28 35-53 35zm1337 246h-455c64 233 394 234 455 0zm75-3028v-211h-634v211c0 292 634 301 634 0zm-356 331v1148h99v-1148zm-193 1514v60h486v-60c0-323-486-323-486 0zm-1085 1060h2662l-419-877h-1827z" fill="url(#id0)"/></g></svg>