<svg clip-rule="evenodd" fill-rule="evenodd" height="512" image-rendering="optimizeQuality" shape-rendering="geometricPrecision" text-rendering="geometricPrecision" viewBox="0 0 1707 1707" width="512" xmlns="http://www.w3.org/2000/svg" xmlns:xlink="http://www.w3.org/1999/xlink"><linearGradient id="id0" gradientUnits="userSpaceOnUse" x1="853.346" x2="853.346" y1=".413" y2="1706.25"><stop offset="0" stop-color="#5cc6d0"/><stop offset=".490196" stop-color="#a53692"/><stop offset="1" stop-color="#f06277"/></linearGradient><g id="Layer_x0020_1"><path d="m1203 1183h-254l209 489c7 15-2 34-20 34h-84c-9 0-18-5-22-15l-112-262v252c-1 14-13 25-26 25h-84c-14 0-25-11-25-25v-259l-115 269c-1 8-11 15-21 15h-83c-15 0-30-16-22-34l209-489h-251c-13 0-24-11-24-25v-176c0-33 49-33 49 0v154h652v-154c0-33 50-33 50 0v178c-3 12-14 23-26 23zm-519-529c-111 0-208-92-206-211 0-10 5-18 15-22 132-57 283 39 288 182l46 31v-141c-168-121-164-374 11-488 8-6 18-6 26 0 177 116 182 365 13 489v139l47-32c3-65 37-125 92-161 58-39 131-47 197-19 8 4 15 12 15 22 1 146-143 246-277 199l-74 50v27h276c14 0 25 11 25 25 0 126 10 123-56 123v208c-1 15-11 25-25 25h-489c-14 0-25-11-25-25v-208c-68 0-57 6-57-123 0-14 11-25 25-25h276v-27l-74-50c-22 8-46 12-69 12zm-158-195c8 88 85 153 172 145l-93-63c-26-17 0-57 26-40l94 63c-26-83-115-130-199-105zm480 145c88 9 166-57 173-145-82-25-172 21-198 104l91-62c27-17 53 23 27 40zm-179-173v-196c0-33 50-33 50 0v196c108-104 99-283-25-377-123 93-133 270-25 377zm245 436h-439v185h439zm-496-48h552v-50h-552zm344 418v69l150 352h30zm-50-54h-35v475h35zm-85 116v-68l-183 427h31z" fill="url(#id0)"/></g></svg>