<svg clip-rule="evenodd" fill-rule="evenodd" height="512" image-rendering="optimizeQuality" shape-rendering="geometricPrecision" text-rendering="geometricPrecision" viewBox="0 0 512 512" width="512" xmlns="http://www.w3.org/2000/svg" xmlns:xlink="http://www.w3.org/1999/xlink"><linearGradient id="id0" gradientUnits="userSpaceOnUse" x1="256" x2="256" y1="-.208" y2="512.208"><stop offset="0" stop-color="#5cc6d0"/><stop offset=".490196" stop-color="#a53692"/><stop offset="1" stop-color="#f06277"/></linearGradient><g id="Layer_x0020_1"><path d="m193 96c-2 0-5-1-6-3l-33-57c-2-3-1-8 3-10 3-2 8-1 10 3l32 56c2 4 1 8-2 10-1 1-2 1-4 1zm84 349 12-63c1-8-2-14-6-19-6-7-17-12-28-12-10 0-20 5-27 12-3 5-7 11-6 19l13 63zm-47 15c-1 0-2 0-3 0h-20c-11 0-21 9-21 21v17h1 138v-17c0-11-10-21-22-21zm-10-15-11-60c-2-11 1-22 8-31 8-9 19-16 31-18v-49h-114c-2 0-4-1-6-3s-2-4-1-6l40-165c1-3 4-5 8-5h162c3 0 6 2 7 5l41 165c0 2 0 5-2 6-1 2-3 3-5 3h-18v38c7 3 12 10 12 18 1 12-8 21-20 21-11 0-20-9-20-21 0-8 5-15 13-18v-38h-82v49c12 2 24 9 32 18 7 9 10 20 8 31l-11 60h12c19 0 36 16 36 36v24c0 4-4 7-8 7h-152c-5 0-8-3-8-7v-24c0-20 16-36 36-36zm-77-172h113 96 17l-37-151h-152zm198-14h-171c-2 0-4-1-6-3s-2-4-1-6l27-108c1-3 4-6 7-6h117c3 0 6 3 7 6l27 108c1 2 0 4-1 6s-3 3-6 3zm-161-15h152l-23-93h-106zm172 94c-3 0-6 3-6 5 0 3 3 6 6 6s6-3 6-6c0-2-3-5-6-5zm-96-258c-4 0-8-4-8-8v-65c0-4 4-7 8-7s7 3 7 7v66c0 3-3 7-7 7zm62 16c-1 0-2 0-3 0-4-2-5-7-3-10l33-57c2-3 6-5 10-3 3 3 4 7 2 10l-32 57c-2 2-4 3-7 3zm46 46c-2 0-5-1-6-3-2-4-1-8 2-10l57-33c3-2 8-1 10 3 2 3 1 7-2 10l-57 32c-1 1-3 1-4 1zm-217 0c-1 0-2 0-3-1l-57-32c-3-2-4-7-2-10s7-5 10-3l56 33c4 2 5 7 3 10-2 2-4 3-7 3z" fill="url(#id0)"/></g></svg>