<svg clip-rule="evenodd" fill-rule="evenodd" height="512" image-rendering="optimizeQuality" shape-rendering="geometricPrecision" text-rendering="geometricPrecision" viewBox="0 0 512 512" width="512" xmlns="http://www.w3.org/2000/svg" xmlns:xlink="http://www.w3.org/1999/xlink"><linearGradient id="id0" gradientUnits="userSpaceOnUse" x1="256" x2="256" y1="36.076" y2="475.924"><stop offset="0" stop-color="#5cc6d0"/><stop offset=".490196" stop-color="#a53692"/><stop offset="1" stop-color="#f06277"/></linearGradient><g id="Layer_x0020_1"><path d="m433 266h-289v60 68 67c0 4-3 7-7 7h-130c-4 0-7-3-7-7v-67-68-67-47c0-4 3-8 7-8h57v-34h-41c-12 0-23-10-23-23v-88c0-13 11-23 23-23h143c12 0 23 10 23 23v88c0 13-11 23-23 23h-41v34h78v-5c0-17 14-31 31-31s31 15 31 31v5h38v-92-35-33c0-5 3-8 7-8h94c5 0 8 3 8 8v33 35 92h21c4 0 8 4 8 8v47c0 4-4 7-8 7zm-21 210h-30-30c-4 0-7-3-7-8 0-4 3-7 7-7h23v-100h-70c-5 0-8-3-8-7s3-7 8-7h77 70l46-182c1-4 5-6 8-5 4 0 7 5 6 8l-47 188c-1 3-4 5-7 5h-68v100h22c5 0 8 3 8 7 0 5-3 8-8 8zm-194-272v-4c0-9 7-17 16-17s17 8 17 17v4zm139-19c-12 0-22-10-22-22s10-22 22-22c13 0 22 9 22 22 1 12-9 22-22 22zm0-30c-4 0-7 3-7 7s3 8 7 8 8-4 8-8-3-7-8-7zm40-35h-80v84h80zm-80-15h80v-21h-80zm0-35h80v-19h-80zm-209 365h-71c-5 0-8-4-8-8s3-7 8-7h71c4 0 8 3 8 7s-4 8-8 8zm22-34h-115v53h115zm-115-15h115v-52h-115zm93-19h-71c-5 0-8-3-8-7s3-8 8-8h71c4 0 8 4 8 8s-4 7-8 7zm-93-48h115v-53h-115zm93-20h-71c-5 0-8-3-8-7s3-7 8-7h71c4 0 8 3 8 7s-4 7-8 7zm-30-95h32v-34h-32zm40 15h-47c-1 0-2 0-2 0h-54v32h122c1 0 2 0 2 1h287v-33h-22-94-52-47-91c-1 0-1 0-2 0zm-95-168c-4 0-8 3-8 8v88c0 4 4 9 8 9h143c4 0 8-5 8-9v-88c0-5-4-8-8-8z" fill="url(#id0)"/></g></svg>