<svg clip-rule="evenodd" fill-rule="evenodd" height="512" image-rendering="optimizeQuality" shape-rendering="geometricPrecision" text-rendering="geometricPrecision" viewBox="0 0 1707 1707" width="512" xmlns="http://www.w3.org/2000/svg" xmlns:xlink="http://www.w3.org/1999/xlink"><linearGradient id="id0" gradientUnits="userSpaceOnUse" x1="853.331" x2="853.331" y1="-.496" y2="1707.16"><stop offset="0" stop-color="#5cc6d0"/><stop offset=".490196" stop-color="#a53692"/><stop offset="1" stop-color="#f06277"/></linearGradient><g id="Layer_x0020_1"><path d="m1548 1559h-1049l20 119c3 18-14 29-26 29h-418c-14 0-25-11-25-25 0-552 2-1105 2-1658 0-13 11-25 24-25h1556c13 0 25 12 25 25v172c-2 14-13 25-27 25h-57v1313c-1 14-12 25-25 25zm-113-133h-561c-14 0-25-12-25-25v-494c0-14 11-25 25-25h562c14 0 25 11 25 25v494c-1 13-13 25-26 25zm-537-49h513v-447h-513zm-149 49h-276c7 27 13 55 18 83h1032v-1288h-817v82c28 0 67-6 67 25v494c0 15-11 26-24 26h-208c-11 12-21 22-33 32h240c14 0 25 11 25 25v494c0 15-11 27-24 27zm-335-28c-31-99-82-178-175-178-46 0-93-1-139-1v440h365c-5-28-50-256-51-261zm45-22h265v-446h-279c-18 12-37 23-56 33v231c0 12-9 22-21 24 42 38 70 95 91 158zm-33-491c155-108 232-294 232-480 0-62 0-122 0-184h-558v704h7c31-25 142-136 139-373-1-34 48-32 48-2 3 198-69 316-119 375h79c31-25 142-136 139-373 0-34 48-32 48-2 3 198-69 316-119 375h36c24-12 46-25 68-40zm1009-37h-561c-14 0-25-11-25-24v-494c0-14 11-25 25-25h562c14 0 25 11 25 25v494c-1 13-13 24-26 24zm-537-48h513v-447h-513zm-316-1h142v-446h-18v50c0 151-45 288-124 396zm-482 174v197h240v-197c-80 0-160 0-240 0zm0-803c502 0 1004 3 1507 3v-124h-1507z" fill="url(#id0)"/></g></svg>