<svg clip-rule="evenodd" fill-rule="evenodd" height="512" image-rendering="optimizeQuality" shape-rendering="geometricPrecision" text-rendering="geometricPrecision" viewBox="0 0 512 512" width="512" xmlns="http://www.w3.org/2000/svg" xmlns:xlink="http://www.w3.org/1999/xlink"><linearGradient id="id0" gradientUnits="userSpaceOnUse" x1="256" x2="256" y1="-.208" y2="512.208"><stop offset="0" stop-color="#5cc6d0"/><stop offset=".490196" stop-color="#a53692"/><stop offset="1" stop-color="#f06277"/></linearGradient><g id="Layer_x0020_1"><path d="m460 335v-130l-204-126-204 126v44h20c4 0 8 3 8 7v152h19c-15-22 1-53 28-53s43 31 28 53h24c2-29 15-45 63-45h138c19 0 35 13 35 30v15h18v-65c0-5 3-8 7-8zm-423-86v-35l-23 15c-5 2-11-1-11-7v-62c0-3 1-5 3-6l246-153c3-2 6-2 8 0l246 153c2 1 3 3 3 6v62c0 6-6 10-10 7l-24-15v121h18c4 0 8 3 8 8v162c-1 4-4 7-8 7h-53c-4 0-7-3-7-7v-29h-353v29c0 4-4 7-8 7h-53c-4 0-7-3-7-7v-249c0-4 3-7 7-7zm43 212h353v-38h-353zm-53 37h38v-234h-38zm229-242c-29 0-52-24-52-52 0-29 23-52 52-52s52 23 52 52c0 28-23 52-52 52zm0-90c-20 0-37 17-37 38 0 20 16 37 37 37s38-17 38-37c0-21-17-38-38-38zm4-102 235 146v-46l-239-148-239 148v45l235-145c3-2 6-1 8 0zm-66 344h206v-15c0-9-10-16-21-16h-137c-39 0-47 10-48 31zm253 90h39v-148h-39zm-320-128c-26 0-27 41 4 38 9-2 15-10 15-19 0-11-8-19-19-19z" fill="url(#id0)"/></g></svg>