<svg clip-rule="evenodd" fill-rule="evenodd" height="512" image-rendering="optimizeQuality" shape-rendering="geometricPrecision" text-rendering="geometricPrecision" viewBox="0 0 512 512" width="512" xmlns="http://www.w3.org/2000/svg" xmlns:xlink="http://www.w3.org/1999/xlink"><linearGradient id="id0" gradientUnits="userSpaceOnUse" x1="256" x2="256" y1="30.812" y2="481.188"><stop offset="0" stop-color="#5cc6d0"/><stop offset=".490196" stop-color="#a53692"/><stop offset="1" stop-color="#f06277"/></linearGradient><g id="Layer_x0020_1"><path d="m103 512h-1c-56 0-102-46-102-103v-402c0-4 3-7 7-7h191c4 0 7 3 7 7v156l51-51c0-1 0-1 1-2l58-57c2-3 7-3 10 0l134 135c3 2 3 7 0 9l-56 57s-1 1-1 1l-52 52h155c4 0 7 3 7 7v191c0 4-3 7-7 7zm0-56c-26 0-47-21-47-47 0-25 21-46 47-46 25 0 46 21 46 46 0 26-21 47-46 47zm0-79c-19 0-33 14-33 33 0 18 14 32 33 32 18 0 32-14 32-32 0-19-14-33-32-33zm327-56v177h68v-177zm-97 0h-48v177h131v-177zm-62 0h-66v84 4c0 38-21 71-51 89h117zm-170 177h2c48 0 88-40 88-89 0-48-40-88-88-88-49 0-89 40-89 89 0 3 0 7 1 11l1 6c0 3 3 13 4 13 0 1 3 8 4 10l4 7c4 7 9 13 15 18 16 15 37 23 58 23zm104-191h33l-33-33zm53 0h20 1 51l57-57-125-125-57 57v72zm14-192 125 125 47-48-124-125zm-81 200c0-2 0-58 0-74h-177v117c18-31 51-51 89-51 37 0 70 20 88 51zm-177-88h177v-131h-177zm0-145h177v-68h-177z" fill="url(#id0)"/></g></svg>