<svg clip-rule="evenodd" fill-rule="evenodd" height="512" image-rendering="optimizeQuality" shape-rendering="geometricPrecision" text-rendering="geometricPrecision" viewBox="0 0 512 512" width="512" xmlns="http://www.w3.org/2000/svg" xmlns:xlink="http://www.w3.org/1999/xlink"><linearGradient id="id0" gradientUnits="userSpaceOnUse" x1="256" x2="256" y1="36.019" y2="475.981"><stop offset="0" stop-color="#5cc6d0"/><stop offset=".490196" stop-color="#a53692"/><stop offset="1" stop-color="#f06277"/></linearGradient><g id="Layer_x0020_1"><path d="m119 445h-37v36c0 9 7 16 17 16h383c8 0 16-7 16-16v-88c0-8-7-16-16-16h-242c-1 0-2 0-3 0s-1 0-2 0h-86v37c1 17-13 31-30 31zm-4-77h-80c-4 0-7-3-7-7v-33c0-4 3-8 7-8h80c4 0 7 4 7 8v33c0 4-3 7-7 7zm-73-14h65v-19h-65zm213 131h-33c-4 0-7-4-7-8v-79c0-4 3-8 7-8h33c4 0 7 4 7 8v79c0 4-3 8-7 8zm-26-15h18v-65h-18zm97 15h-33c-4 0-8-4-8-8v-79c0-4 4-8 8-8h33c4 0 7 4 7 8v79c0 4-3 8-7 8zm-26-15h18v-65h-18zm96 15h-32c-4 0-8-4-8-8v-79c0-4 4-8 8-8h32c5 0 8 4 8 8v79c-1 4-4 8-8 8zm-25-15h18v-65h-18zm96 15h-33c-4 0-7-4-7-8v-79c0-4 3-8 7-8h33c4 0 8 4 8 8v79c0 4-4 8-8 8zm-25-15h18v-65h-18zm-375-25h-36c-17 0-31-14-31-31v-383c0-17 14-31 31-31h88c17 0 30 14 30 31v227l161-161c6-6 13-9 21-9 9 0 16 4 22 9l62 62c12 12 12 31 0 44l-159 159h225c17 0 31 14 31 31v88c0 17-14 31-31 31h-383c-17 0-31-14-31-31zm168-83 170-170c6-6 6-16 0-23l-62-61c-3-3-7-5-12-5-4 0-8 2-11 5l-171 170v84zm-163 68h3 2 42c9 0 16-7 16-16v-42c0-1 0-2 0-2 0-1 0-2 0-3v-91c0-1 0-1 0-2v-243c0-9-7-16-16-16h-88c-9 0-16 7-16 16v383c0 9 7 16 16 16zm185-111c-2 0-4-1-5-2l-57-57c-1-1-2-3-2-5s1-4 2-5l24-23c3-3 7-3 10 0l56 56c2 2 2 4 2 5 0 3 0 4-2 5l-23 23c-1 2-3 3-5 3zm-46-64 46 46 13-13-46-46zm96 14c-2 0-4-1-5-2l-56-57c-1-1-2-3-2-5s1-3 2-5l23-23c3-3 8-3 11 0l56 57c1 1 2 3 2 5s-1 3-2 5l-24 22c-1 2-3 3-5 3zm-46-64 46 46 13-12-46-47zm96 14c-2 0-4-1-5-3l-56-56c-2-1-2-3-2-5s0-3 2-5l23-23c3-2 7-2 10 0l57 57c1 1 2 3 2 5s-1 3-2 5l-24 22c-1 2-3 3-5 3zm-46-64 46 47 13-13-46-47zm-196 143h-80c-4 0-7-4-7-8v-33c0-4 3-7 7-7h80c4 0 7 3 7 7v33c0 4-3 8-7 8zm-73-15h65v-18h-65zm73-56h-80c-4 0-7-3-7-8v-32c0-5 3-8 7-8h80c4 0 7 3 7 8v32c0 5-3 8-7 8zm-73-15h65v-18h-65zm73-56h-80c-4 0-7-3-7-7v-33c0-4 3-8 7-8h80c4 0 7 4 7 8v33c0 4-3 7-7 7zm-73-14h65v-19h-65zm73-57h-80c-4 0-7-3-7-7v-33c0-4 3-7 7-7h80c4 0 7 3 7 7v33c0 4-3 7-7 7zm-73-14h65v-18h-65z" fill="url(#id0)"/></g></svg>