<svg clip-rule="evenodd" fill-rule="evenodd" height="512" image-rendering="optimizeQuality" shape-rendering="geometricPrecision" text-rendering="geometricPrecision" viewBox="0 0 512 512" width="512" xmlns="http://www.w3.org/2000/svg" xmlns:xlink="http://www.w3.org/1999/xlink"><linearGradient id="id0" gradientUnits="userSpaceOnUse" x1="256" x2="256" y1="5.035" y2="506.965"><stop offset="0" stop-color="#5cc6d0"/><stop offset=".490196" stop-color="#a53692"/><stop offset="1" stop-color="#f06277"/></linearGradient><g id="Layer_x0020_1"><path d="m152 394-19-20-14 14c-5 5-5 14 0 20 5 5 15 5 20 0zm334-152c-2 0-3-1-4-2l-43-36v238h57c4 0 7 3 7 8v49c0 5-3 8-7 8h-480c-4 0-7-3-7-8v-49c0-5 3-8 7-8h57l-1-237-41 35c-2 1-3 2-6 2-2 0-3-1-5-3l-18-22c-3-3-2-7 1-10l114-96v-98c0-5 3-8 7-8h40c5 0 8 3 8 8v51l55-46c17-13 41-13 58 0l224 189c3 2 4 7 1 10l-18 22c-2 2-3 3-5 3 0 0 0 0-1 0zm-62-50-167-140s-1 0-2 0l-168 141v249h338zm-292-94 25-21v-57h-25zm-114 116 9 10 47-39c0-1 2-2 3-3l169-142c5-4 14-4 20 0l167 141c2 1 4 2 5 4l47 40 9-11-218-185c-11-9-28-9-39 0l-67 56c0 1-1 1-2 2zm5 278h466v-35h-466zm345-154c-2 0-4-1-5-2l-17-17c-1-1-2-3-2-5s1-4 2-6c2-1 3-3 3-5s-1-5-3-6c-3-4-8-4-11 0-3 3-8 3-11 0l-26-27-149 149c-5 5-12 8-20 8-7 0-15-3-20-9-11-11-11-29 0-40l17-17c0-1 1-1 1-2 1-1 2-1 3-2l127-127-16-16c-1-2-2-4-2-6s1-4 2-5l2-1c-3-6-9-18-20-23s-24-4-41 4c-3 2-7 1-9-2s-1-7 1-9c19-20 39-30 59-29 22 2 38 15 45 24 1-1 3-1 4-1 2 0 4 1 5 2l83 83c3 3 3 8 0 11s-3 8 0 11 9 3 12 0c3-2 8-2 11 0l16 17c3 3 3 8 0 11l-36 36c-1 0-3 1-5 1zm-7-25 7 8 26-26-7-7c-3 1-7 2-10 2-7 0-12-2-17-7-7-7-8-17-4-26l-74-74c-1 1-3 2-5 1-2 0-4-1-6-2 0-1-16-23-39-24-7-1-14 1-21 4 7 0 13 1 18 4 22 10 29 35 29 37 1 2 0 4-1 6l74 74c8-5 19-3 26 4 4 4 7 10 6 16 0 4 0 7-2 10zm-218 51 20 20 124-124-20-20z" fill="url(#id0)"/></g></svg>