<svg clip-rule="evenodd" fill-rule="evenodd" height="512" image-rendering="optimizeQuality" shape-rendering="geometricPrecision" text-rendering="geometricPrecision" viewBox="0 0 512 512" width="512" xmlns="http://www.w3.org/2000/svg" xmlns:xlink="http://www.w3.org/1999/xlink"><linearGradient id="id0" gradientUnits="userSpaceOnUse" x1="256.001" x2="256.001" y1=".196" y2="511.804"><stop offset="0" stop-color="#5cc6d0"/><stop offset=".490196" stop-color="#a53692"/><stop offset="1" stop-color="#f06277"/></linearGradient><g id="Layer_x0020_1"><path d="m109 476c-8 0-15-3-20-9-6-5-9-12-9-20s3-15 9-21c11-11 29-11 40 0 12 12 12 30 0 41-5 6-12 9-20 9zm-35-174s-1 0-2-1l-47-12c-2-1-4-2-5-4s-1-4 0-6c0-1 37-111 51-126l68-67c7-7 17-9 23-4l22-22-13-14c-1-1-2-3-2-4 0-2 1-4 2-5l35-35c2-3 7-3 10 0l84 84c3 3 3 8 0 11l-34 34c-2 1-3 2-6 2-2 0-3-1-5-2l-13-14-22 23c1 2 2 4 2 7 0 6-2 11-7 15l-13 13 55 55 45-46c-8-33 1-68 25-92 26-26 63-35 97-24 3 1 4 2 5 5 1 2 0 5-1 6l-51 64 36 36 63-51c3-2 5-2 7-1 3 1 4 2 5 5 11 34 2 71-24 96-24 25-59 34-92 25l-46 46 55 55 5-5c3-3 8-3 11 0l74 75c18 18 18 48 0 67-9 8-21 13-33 13s-24-5-33-14l-75-75c-1-1-2-4-2-5 0-2 1-4 2-5l5-5-55-55-97 97c0 19-7 36-20 49s-31 21-49 21-36-7-49-21c-27-27-27-71 0-98 13-13 30-20 49-20l97-97-54-55-14 14c-5 5-11 6-14 6-8 0-14-5-19-10l-29 66c-2 3-4 5-7 5zm99-210 37 37 22-22-37-37zm19 94-25 25 54 54 26-25zm-156 91 34 9 31-72c1-2 3-4 5-4 3 0 5 0 7 2 1 1 2 3 3 4 4 4 9 11 13 11 1 0 2-1 4-2l53-54s1-1 1-1 0 0 1-1l17-17c2-2 3-4 3-5l-49-49s-1-1-1-1c-1-1-1-1-2-2l-1-1c-1-1-3 0-6 2l-68 67c-8 9-32 75-45 114zm254 58 55 55 26-26-55-55zm62 68c-1 1-1 1-2 2 0 0 0 0-1 1l-4 4 70 70c13 13 33 13 46 0 12-12 12-33 0-45l-70-71-4 4s0 1-1 1c0 1-1 1-1 1zm-106-302s1 0 2 1c0 0 0 1 1 2l11 11 24-24-73-74-25 24 12 12c1 0 2 1 2 1 1 1 1 1 1 2zm-132 286c-15 0-29 6-39 17-21 21-21 56 0 77 10 10 24 16 39 16 14 0 28-6 38-16 11-11 17-26 16-42 0-2 1-4 3-5l193-194c3-2 5-2 8-2 29 9 60 2 82-20 19-19 27-45 22-71l-59 47c-3 3-7 2-9 0l-46-46c-2-2-2-6 0-9l48-60c-26-4-53 4-72 23-21 21-29 53-20 82 1 3 0 6-2 7l-194 194c-1 2-3 2-5 2-1 0-2 0-3 0zm-5 46c-4 0-8 1-10 4-3 3-5 6-5 10s2 7 5 10c5 6 15 6 20 0 6-6 6-15 0-21-3-2-6-3-10-3z" fill="url(#id0)"/></g></svg>