<svg clip-rule="evenodd" fill-rule="evenodd" height="512" image-rendering="optimizeQuality" shape-rendering="geometricPrecision" text-rendering="geometricPrecision" viewBox="0 0 512 512" width="512" xmlns="http://www.w3.org/2000/svg" xmlns:xlink="http://www.w3.org/1999/xlink"><linearGradient id="id0" gradientUnits="userSpaceOnUse" x1="256.006" x2="256.006" y1="48.935" y2="463.066"><stop offset="0" stop-color="#5cc6d0"/><stop offset=".490196" stop-color="#a53692"/><stop offset="1" stop-color="#f06277"/></linearGradient><g id="Layer_x0020_1"><path d="m445 433c-5 0-11-2-15-5l-98-80v91c0 13-11 24-24 24h-243c-13 0-24-11-24-24v-17h-17c-13 0-24-10-24-23v-326c0-13 11-24 24-24h243c13 0 24 11 24 24v17h17c13 0 24 10 24 23v85l171 140c10 8 12 22 4 32l-44 54c-5 6-12 9-18 9zm-127-96-114-92c-3-3-3-7-1-10l8-9-29-24c-1 0-1-1-1-1l-34-28c-1 0-1 0-1 0l-35-28c-4-4-3-11 2-13l76-21c3-1 6 0 7 2l34 27s1 1 1 1l29 24 8-10c2-3 7-3 10-1l40 33v-73c0-6-5-10-10-10h-243c-6 0-10 4-10 10v325c0 6 4 10 10 10h42v-119c0-1 0-2 1-3l38-90c1-2 3-4 6-4h22c3 0 5 2 7 4l38 90c0 1 1 2 1 3v119h88c5 0 10-4 10-10zm-277 71v-295c0-13 11-23 24-23h212v-17c0-6-4-10-10-10h-243c-5 0-10 4-10 10v326c0 5 5 9 10 9zm280-200-47-38-23 29 73 59 26-3c3 0 6 2 7 6l3 12h13c3 0 6 2 6 6l3 12h13c3 0 6 2 7 6l2 12h13c3 0 6 2 7 6l2 12h13c4 0 7 3 7 6v4l14-17zm-200 241h11c2-28 15-48 31-48 17 0 29 20 31 48h12v-58h-85zm25 0h34c-2-21-10-34-17-34-6 0-15 13-17 34zm60-72v-40h-85v40zm-82-54h78l-32-76h-13zm280 66 14-17-4 1s0 0-1 0c-3 0-6-3-6-6l-3-12h-13c-3 0-6-2-7-6l-2-12h-13c-3 0-6-3-7-6l-2-12h-13c-4 0-6-2-7-6l-3-12h-12c-4 0-7-3-7-7l-3-26-73-59-23 29zm67-60-31 38c-1 1-1 2-2 2l-23 29 24 19c4 3 9 2 13-1l44-55c3-4 2-9-2-12zm-41 28 4-5-1-11h-12c-4 0-7-2-7-6l-3-12h-12c-4 0-7-2-7-6l-3-12h-13c-3 0-6-2-7-6l-2-12h-13c-3 0-6-2-7-6l-2-12-16 2 2 16h12c3 0 6 2 7 5l2 13h13c3 0 6 2 7 5l3 13h12c4 0 7 2 7 5l3 13h13c3 0 6 2 6 5l3 12zm-241-232-59 17 22 18 59-17zm36 29-60 17 22 17 60-17zm17 33-41 12 19 16z" fill="url(#id0)"/></g></svg>