<svg clip-rule="evenodd" fill-rule="evenodd" height="512" image-rendering="optimizeQuality" shape-rendering="geometricPrecision" text-rendering="geometricPrecision" viewBox="0 0 512 512" width="512" xmlns="http://www.w3.org/2000/svg" xmlns:xlink="http://www.w3.org/1999/xlink"><linearGradient id="id0" gradientUnits="userSpaceOnUse" x1="256" x2="256" y1="-.208" y2="512.208"><stop offset="0" stop-color="#5cc6d0"/><stop offset=".490196" stop-color="#a53692"/><stop offset="1" stop-color="#f06277"/></linearGradient><g id="Layer_x0020_1"><path d="m295 226c-5 0-8-4-8-8v-66c0-4 3-8 8-8 4 0 7 4 7 8v66c0 4-3 8-7 8zm-32 130h160v-334c0-3-4-7-10-7h-150zm-7-356h157c14 0 25 10 25 22v339 2 106c0 4-3 7-7 7h-24v25c-1 6-6 11-12 11h-42c-6 0-12-5-12-11v-25h-169v25c-1 6-6 11-12 11h-43c-6 0-11-5-11-11v-25h-25c-4 0-7-3-7-7v-106s0-1 0-2v-336c0-14 11-25 25-25zm-7 356v-342h-149c-6 0-11 5-11 11v331zm143 120h-36v22h36zm-235 0h-36v22h36zm-69-14h23c1 0 1-1 2-1s2 1 3 1h46s1-1 2-1 2 1 3 1h179c1 0 2-1 3-1s1 1 2 1h46c1 0 2-1 3-1 0 0 1 1 2 1h21v-91h-167-168zm195-29h-54c-11 0-15-6-15-11v-15c0-4 3-8 8-8 4 0 7 4 7 8v11h1 54v-11c0-4 3-8 8-8 4 0 7 4 7 8v15c-1 6-4 11-16 11zm-66-207c-4 0-7-4-7-8v-66c0-4 3-8 7-8 5 0 8 4 8 8v66c0 4-3 8-8 8z" fill="url(#id0)"/></g></svg>