<svg clip-rule="evenodd" fill-rule="evenodd" height="512" image-rendering="optimizeQuality" shape-rendering="geometricPrecision" text-rendering="geometricPrecision" viewBox="0 0 512 512" width="512" xmlns="http://www.w3.org/2000/svg" xmlns:xlink="http://www.w3.org/1999/xlink"><linearGradient id="id0" gradientUnits="userSpaceOnUse" x1="256" x2="256" y1="70.833" y2="441.167"><stop offset="0" stop-color="#5cc6d0"/><stop offset=".490196" stop-color="#a53692"/><stop offset="1" stop-color="#f06277"/></linearGradient><g id="Layer_x0020_1"><path d="m393 445h-324c-3 0-5-2-6-5-2-3-1-5 2-8l323-286c2-2 6-3 8-1 3 1 4 3 4 6v286c0 5-3 8-7 8zm-328-147c-2 0-4-1-6-2l-7-8-35 32c-2 1-3 2-3 5 0 2 1 4 2 5l38 42c2 3 7 3 11 0l263-237c2-1 3-3 3-5s-1-4-2-5l-38-42c-1-1-3-2-5-2s-4 1-5 2l-2 2 19 22c2 3 2 7-1 10-1 2-3 2-5 2s-4-1-5-2l-19-22-4 3 7 8c3 3 3 8 0 11-2 1-3 2-5 2s-4-1-5-3l-8-8-3 3 19 21c2 3 2 8 0 11-2 1-4 2-5 2-3 0-5-1-6-3l-19-21-4 3 7 8c3 3 3 7 0 10-1 2-3 2-5 2s-4-1-6-2l-7-8-3 3 19 21c3 3 3 8 0 11-1 1-3 2-5 2s-4-1-6-3l-19-22-4 4 8 7c2 3 2 8-1 11-1 1-3 2-5 2s-4-1-5-3l-8-7-3 2 19 22c3 3 3 7 0 10-1 2-3 2-5 2s-4-1-5-2l-20-22-3 3 7 8c3 3 3 8 0 11-2 1-4 2-5 2-2 0-4-1-6-3l-7-8-3 3 19 22c2 2 2 7-1 10-1 1-3 2-5 2s-4-1-5-2l-19-22-4 3 7 8c3 3 3 7 0 10-2 2-3 2-5 2s-4-1-5-2l-8-8-3 3 19 21c3 3 3 8 0 11-2 1-3 2-5 2s-4-1-5-3l-20-21-3 3 7 8c2 2 2 7-1 10-1 2-3 2-5 2s-4-1-5-2l-7-8-4 2 20 22c2 3 2 8-1 11-1 1-3 2-5 2s-4-1-5-3l-20-22-3 4 7 7c3 3 2 8 0 11-2 1-3 2-5 2-3 0-4-1-6-3l-7-8-3 3 19 22c2 3 2 7-1 10-1 1-3 2-5 2s-4-1-5-2l-19-22-4 3 7 8c3 3 3 7 0 10-1 2-4 2-5 2zm206-225c9-8 23-8 31 1l37 42c5 4 7 10 6 16 0 5-3 11-7 15l-264 237c-4 3-9 5-15 5s-12-2-16-7l-38-42c-4-4-6-10-5-16 0-6 3-11 7-15 88-79 176-158 264-236zm-213 281c-1 0-1 0-2 0-6 0-11-3-15-7-5-5-7-11-6-17 0-6 3-12 8-16 9-8 23-7 32 2 8 9 7 24-2 32-4 4-10 6-15 6zm-1-31c-2 0-3 1-5 2-2 2-3 3-3 6 0 2 1 4 2 6s3 3 5 3c3 0 5-1 6-3 4-2 4-8 1-12-1-1-3-2-6-2zm426 54c-4 0-7-3-7-7v-120c0-4 3-8 7-8s8 4 8 8v120c0 4-4 7-8 7zm-27 0c-4 0-7-3-7-7v-120c0-4 3-8 7-8 5 0 8 4 8 8v120c0 4-3 7-8 7zm-29-165v-15c0-1 1-2 1-3l35-73c1-3 3-4 6-4 3 0 6 1 7 4l35 73c1 1 1 2 1 3v15 1 194c0 21-17 38-37 38h-9c-20 0-36-15-38-34 0-1-1-3-1-4zm71-7v-6l-28-58-28 58v6zm-56 195h56v-180h-56zm1 15c3 9 12 15 22 15h9c10 0 19-6 22-15zm-89-2h-187c-3 0-6-2-6-5-2-3-1-6 2-8l186-165c2-2 6-3 8-1 3 1 4 3 4 6v166c0 4-2 7-7 7zm-167-15h160v-141zm-98 32h297v-263z" fill="url(#id0)"/></g></svg>